<svg width="50" height="50" xmlns="http://www.w3.org/2000/svg">

 <g>
  <title>background</title>
  <rect fill="none" id="canvas_background" height="402" width="582" y="-1" x="-1"/>
 </g>
 <g>
  <title>Layer 1</title>
  <g id="svg_22">
   <path fill="#3498db" id="svg_13" d="m6.54,32.454999c0,2.81 2.28,5.09 5.09,5.09s5.09,-2.28 5.09,-5.09s-2.28,-5.09 -5.09,-5.09s-5.09,2.29 -5.09,5.09zm8.68,0c0,1.98 -1.61,3.59 -3.59,3.59s-3.59,-1.61 -3.59,-3.59s1.61,-3.59 3.59,-3.59s3.59,1.61 3.59,3.59z" class="st4"/>
   <path fill="#3498db" id="svg_14" d="m11.63,39.164999c-4.93,0 -9.05,3.86 -9.36,8.79c-0.01,0.21 0.06,0.41 0.2,0.56c0.14,0.15 0.34,0.24 0.55,0.24l17.23,0c0.21,0 0.41,-0.09 0.55,-0.24c0.14,-0.15 0.21,-0.35 0.2,-0.56c-0.32,-4.93 -4.44,-8.79 -9.37,-8.79zm-7.77,8.08c0.63,-3.75 3.9,-6.58 7.77,-6.58s7.15,2.83 7.77,6.58l-15.54,0z" class="st4"/>
   <path fill="#3498db" id="svg_15" d="m33.27,32.454999c0,2.81 2.28,5.09 5.09,5.09s5.09,-2.28 5.09,-5.09s-2.28,-5.09 -5.09,-5.09s-5.09,2.29 -5.09,5.09zm8.68,0c0,1.98 -1.61,3.59 -3.59,3.59s-3.59,-1.61 -3.59,-3.59s1.61,-3.59 3.59,-3.59s3.59,1.61 3.59,3.59z" class="st4"/>
   <path fill="#3498db" id="svg_16" d="m38.36,39.164999c-4.93,0 -9.05,3.86 -9.36,8.79c-0.01,0.21 0.06,0.41 0.2,0.56c0.14,0.15 0.34,0.24 0.55,0.24l17.23,0c0.21,0 0.41,-0.09 0.55,-0.24c0.14,-0.15 0.21,-0.35 0.2,-0.56c-0.33,-4.93 -4.44,-8.79 -9.37,-8.79zm-7.78,8.08c0.63,-3.75 3.9,-6.58 7.77,-6.58c3.88,0 7.15,2.83 7.77,6.58l-15.54,0z" class="st4"/>
   <circle fill="#3498db" id="svg_17" r="0.75" cy="10.764999" cx="17.78" class="st4"/>
   <path fill="#3498db" id="svg_18" d="m7.02,15.844999l2.33,0l0,3.95c0,0.31 0.2,0.59 0.49,0.7c0.08,0.03 0.17,0.05 0.26,0.05c0.21,0 0.42,-0.09 0.57,-0.26l3.8,-4.44l2.56,0l0,4.46c0,0.2 0.08,0.39 0.22,0.53c0.14,0.14 0.33,0.22 0.53,0.22l14.07,0l3.79,4.44c0.15,0.17 0.35,0.26 0.57,0.26c0.09,0 0.18,-0.01 0.26,-0.05c0.3,-0.1 0.49,-0.39 0.49,-0.7l0,-3.95l2.33,0c0.2,0 0.39,-0.08 0.53,-0.22c0.14,-0.14 0.22,-0.33 0.22,-0.53l0,-13.1c0,-0.2 -0.08,-0.39 -0.22,-0.53c-0.14,-0.14 -0.33,-0.22 -0.53,-0.22l-10,0l0,-4.46c0,-0.41 -0.34,-0.75 -0.75,-0.75l-21.52,0c-0.41,0 -0.75,0.34 -0.75,0.75l0,13.09c0,0.42 0.34,0.76 0.75,0.76zm0.75,-13.1l20.01,0l0,3.71l-10,0c-0.2,0 -0.39,0.08 -0.53,0.22c-0.14,0.13 -0.22,0.33 -0.22,0.53l0,1.56c0,0.42 0.33,0.75 0.75,0.75c0.41,0 0.75,-0.33 0.75,-0.75l0,-0.81l20.01,0l0,11.59l-2.33,0c-0.19,0 -0.39,0.08 -0.53,0.22c-0.14,0.14 -0.22,0.33 -0.22,0.53l0,2.67l-2.7,-3.16c-0.14,-0.17 -0.35,-0.26 -0.57,-0.26l-13.66,0l0,-6.78c0,-0.41 -0.34,-0.75 -0.75,-0.75c-0.42,0 -0.75,0.34 -0.75,0.75l0,1.57l-2.91,0c-0.22,0 -0.43,0.1 -0.57,0.26l-2.7,3.16l0,-2.67c0,-0.41 -0.34,-0.75 -0.75,-0.75l-2.33,0l0,-11.59z" class="st4"/>
   <path fill="#3498db" id="svg_19" d="m21.5,11.644999l14.06,0c0.41,0 0.75,-0.34 0.75,-0.75s-0.34,-0.75 -0.75,-0.75l-14.06,0c-0.41,0 -0.75,0.34 -0.75,0.75s0.33,0.75 0.75,0.75z" class="st4"/>
   <path fill="#3498db" id="svg_20" d="m21.5,14.734999l14.06,0c0.41,0 0.75,-0.34 0.75,-0.75s-0.34,-0.75 -0.75,-0.75l-14.06,0c-0.41,0 -0.75,0.34 -0.75,0.75s0.33,0.75 0.75,0.75z" class="st4"/>
   <path fill="#3498db" id="svg_21" d="m21.5,17.834999l8.7,0c0.41,0 0.75,-0.34 0.75,-0.75s-0.34,-0.75 -0.75,-0.75l-8.7,0c-0.41,0 -0.75,0.34 -0.75,0.75s0.33,0.75 0.75,0.75z" class="st4"/>
  </g>
 </g>
</svg>