<svg width="50" height="50" xmlns="http://www.w3.org/2000/svg">

 <g>
  <title>background</title>
  <rect fill="none" id="canvas_background" height="402" width="582" y="-1" x="-1"/>
 </g>
 <g>
  <title>Layer 1</title>
  <g id="svg_14">
   <path fill="#3498db" id="svg_11" d="m13.910001,7.485001c0.2,0 0.39,-0.08 0.54,-0.23c0.14,-0.14 0.21,-0.33 0.21,-0.53c-0.01,-0.2 -0.09,-0.39 -0.23,-0.53c-0.29,-0.27 -0.78,-0.27 -1.06,0.02c0,0 0,0 -0.01,0c-0.13,0.15 -0.21,0.34 -0.2,0.54c0,0.2 0.08,0.39 0.23,0.53c0.14,0.13 0.32,0.2 0.52,0.2z" class="st4"/>
   <path fill="#3498db" id="svg_12" d="m26.020001,1.285001c-0.31,-0.02 -0.64,-0.03 -1.02,-0.03c-3.66,0 -7.24,1.26 -10.09,3.55c-0.16,0.12 -0.25,0.3 -0.28,0.5c-0.02,0.2 0.04,0.4 0.17,0.55c0.24,0.31 0.74,0.37 1.05,0.12c2.62,-2.11 5.79,-3.22 9.16,-3.22c0.33,0 0.63,0.01 0.91,0.03c7.47,0.45 13.48,6.66 13.7,14.14c0,0.15 0,0.3 0,0.44c0,4.25 -1.84,8.29 -5.07,11.08c-1.96,1.69 -3.13,3.98 -3.31,6.45l-5.49,0l0,-4.52c4.58,-0.38 8.2,-4.23 8.2,-8.91c0,-4.93 -4.01,-8.95 -8.95,-8.95s-8.95,4.01 -8.95,8.95c0,4.68 3.61,8.53 8.2,8.91l0,4.52l-5.48,0c-0.18,-2.48 -1.32,-4.77 -3.14,-6.3c-3.34,-2.79 -5.25,-6.88 -5.25,-11.22c0,-3.14 0.98,-6.14 2.84,-8.66c0.25,-0.34 0.18,-0.81 -0.16,-1.05c-0.32,-0.24 -0.81,-0.16 -1.04,0.16c-2.06,2.78 -3.14,6.08 -3.14,9.55c0,4.79 2.11,9.3 5.78,12.37c1.67,1.4 2.63,3.52 2.63,5.81l0,0.09c0,0 0,0 0,0l0,7.99c0,0.41 0.34,0.75 0.75,0.75l1.6,0c0.53,2.49 2.76,4.36 5.37,4.36c2.61,0 4.82,-1.87 5.36,-4.36l1.6,0c0.41,0 0.75,-0.34 0.75,-0.75l0,-7.97c0,-0.01 0,-0.02 0,-0.02l0,-0.12c0,-2.23 1.02,-4.4 2.81,-5.94c3.56,-3.08 5.59,-7.53 5.59,-12.22c0,-0.16 0,-0.32 0,-0.48c-0.25,-8.24 -6.88,-15.09 -15.1,-15.6zm-8.46,20.17c0,-4.11 3.34,-7.45 7.45,-7.45s7.45,3.34 7.45,7.45s-3.34,7.45 -7.45,7.45s-7.45,-3.34 -7.45,-7.45zm1.23,14.94l12.42,0l0,2.5l-12.42,0l0,-2.5zm6.22,10.86c-1.79,0 -3.35,-1.21 -3.84,-2.86l7.68,0c-0.5,1.65 -2.05,2.86 -3.84,2.86zm6.21,-4.36l-12.43,0l0,-2.5l12.42,0l0,2.5l0.01,0z" class="st4"/>
   <path fill="#3498db" id="svg_13" d="m25.760001,26.985001l0,-0.49c1.26,-0.33 2.2,-1.47 2.2,-2.84c0,-1.63 -1.32,-2.95 -2.95,-2.95c-0.8,0 -1.45,-0.65 -1.45,-1.45s0.65,-1.45 1.45,-1.45s1.45,0.65 1.45,1.45c0,0.41 0.34,0.75 0.75,0.75s0.75,-0.34 0.75,-0.75c0,-1.36 -0.94,-2.5 -2.2,-2.84l0,-0.49c0,-0.41 -0.34,-0.75 -0.75,-0.75s-0.75,0.34 -0.75,0.75l0,0.49c-1.26,0.33 -2.2,1.47 -2.2,2.84c0,1.63 1.32,2.95 2.95,2.95c0.8,0 1.45,0.65 1.45,1.45s-0.65,1.45 -1.45,1.45s-1.45,-0.65 -1.45,-1.45c0,-0.41 -0.34,-0.75 -0.75,-0.75s-0.75,0.34 -0.75,0.75c0,1.36 0.94,2.5 2.2,2.84l0,0.49c0,0.41 0.34,0.75 0.75,0.75s0.75,-0.34 0.75,-0.75z" class="st4"/>
  </g>
 </g>
</svg>