<svg width="50" height="50" xmlns="http://www.w3.org/2000/svg">

 <g>
  <title>background</title>
  <rect fill="none" id="canvas_background" height="402" width="582" y="-1" x="-1"/>
 </g>
 <g>
  <title>Layer 1</title>
  <g id="svg_12">
   <path fill="#3498db" id="svg_8" d="m29.673123,1.244999c-4.84,0 -9.46,1.82 -13,5.12c-3.52,3.29 -5.66,7.73 -6.02,12.51c-0.02,0.2 0.05,0.4 0.18,0.55s0.31,0.24 0.51,0.26c0.41,0.03 0.76,-0.28 0.8,-0.68l0,-0.01c0.69,-9.11 8.39,-16.25 17.53,-16.25c9.68,0.02 17.56,7.91 17.58,17.58c-0.02,9.68 -7.9,17.57 -17.58,17.59c-8.7,0 -16.18,-6.49 -17.4,-15.1c-0.06,-0.4 -0.45,-0.7 -0.85,-0.63c-0.2,0.03 -0.37,0.13 -0.49,0.29c-0.13,0.16 -0.18,0.36 -0.15,0.55c0.32,2.29 1.07,4.48 2.17,6.48l-10.14,10.14c-2.08,2.08 -2.07,5.47 0,7.54c1.01,1.01 2.35,1.57 3.77,1.57c0,0 0,0 0.01,0c1.42,0 2.76,-0.56 3.76,-1.57l10.14,-10.14c2.79,1.53 5.94,2.37 9.17,2.37c10.52,0 19.08,-8.56 19.08,-19.09c0.01,-10.52 -8.55,-19.08 -19.07,-19.08zm-23.08,46.01c0,0 0,0 0,0c-1.03,0 -1.99,-0.4 -2.72,-1.13c-1.49,-1.49 -1.49,-3.93 0,-5.42l0.82,-0.82l5.42,5.42l-0.82,0.82c-0.72,0.72 -1.68,1.12 -2.7,1.13zm4.59,-3.01l-5.42,-5.42l7.99,-7.99c0.94,1.42 2.06,2.72 3.36,3.86c0.65,0.57 1.35,1.08 2.07,1.55l-8,8z" class="st4"/>
   <path fill="#3498db" id="svg_9" d="m11.353123,21.684999l0.03,0c0.2,-0.01 0.38,-0.09 0.52,-0.24c0.14,-0.14 0.21,-0.34 0.2,-0.53c-0.01,-0.41 -0.34,-0.73 -0.75,-0.73l-0.02,0c-0.2,0.01 -0.39,0.09 -0.52,0.24c-0.14,0.14 -0.21,0.33 -0.21,0.53c0.02,0.41 0.35,0.73 0.75,0.73z" class="st4"/>
   <path fill="#3498db" id="svg_10" d="m29.673123,34.964999c8.06,0 14.62,-6.56 14.62,-14.63c0,-8.07 -6.56,-14.63 -14.62,-14.63c-8.07,0 -14.63,6.56 -14.63,14.63c0,8.06 6.56,14.63 14.63,14.63zm0,-27.76c7.24,0 13.12,5.89 13.12,13.13c0,7.24 -5.89,13.13 -13.12,13.13c-7.24,0 -13.13,-5.89 -13.13,-13.13c0,-7.24 5.89,-13.13 13.13,-13.13z" class="st4"/>
   <path fill="#3498db" id="svg_11" d="m29.673123,26.704999c-1.55,0 -2.81,-1.26 -2.81,-2.81c0,-0.41 -0.34,-0.75 -0.75,-0.75s-0.75,0.34 -0.75,0.75c0,2.12 1.54,3.88 3.56,4.23l0,1.16c0,0.41 0.34,0.75 0.75,0.75s0.75,-0.34 0.75,-0.75l0,-1.16c2.02,-0.36 3.56,-2.11 3.56,-4.23c0,-2.38 -1.93,-4.31 -4.31,-4.31c-1.55,0 -2.81,-1.26 -2.81,-2.81s1.26,-2.81 2.81,-2.81s2.81,1.26 2.81,2.81c0,0.41 0.34,0.75 0.75,0.75s0.75,-0.34 0.75,-0.75c0,-2.12 -1.54,-3.88 -3.56,-4.23l0,-1.17c0,-0.41 -0.34,-0.75 -0.75,-0.75s-0.75,0.34 -0.75,0.75l0,1.16c-2.02,0.36 -3.56,2.11 -3.56,4.23c0,2.38 1.93,4.31 4.31,4.31c1.55,0 2.81,1.26 2.81,2.81s-1.26,2.82 -2.81,2.82z" class="st4"/>
  </g>
 </g>
</svg>