<svg width="50" height="50" xmlns="http://www.w3.org/2000/svg">

 <g>
  <title>background</title>
  <rect fill="none" id="canvas_background" height="402" width="582" y="-1" x="-1"/>
 </g>
 <g>
  <title>Layer 1</title>
  <g id="svg_18">
   <path fill="#3498db" id="svg_12" d="m24.700002,27.86l-1.95,-2.87c0.31,-0.57 0.56,-1.16 0.74,-1.78l3.4,-0.64c0.35,-0.07 0.61,-0.38 0.61,-0.74l0,-2.7c0,-0.36 -0.26,-0.67 -0.61,-0.74l-3.4,-0.64c-0.18,-0.61 -0.43,-1.21 -0.74,-1.78l1.95,-2.86c0.2,-0.3 0.17,-0.7 -0.09,-0.95l-1.91,-1.92c-0.26,-0.26 -0.66,-0.29 -0.96,-0.09l-2.86,1.96c-0.57,-0.31 -1.16,-0.55 -1.78,-0.74l-0.64,-3.41c-0.07,-0.35 -0.38,-0.61 -0.74,-0.61l-2.7,0c-0.36,0 -0.67,0.26 -0.74,0.61l-0.64,3.41c-0.62,0.18 -1.22,0.43 -1.78,0.74l-2.86,-1.96c-0.3,-0.2 -0.7,-0.17 -0.96,0.09l-1.91,1.92c-0.25,0.25 -0.29,0.65 -0.09,0.95l1.95,2.86c-0.31,0.57 -0.55,1.16 -0.74,1.78l-3.4,0.64c-0.35,0.07 -0.61,0.38 -0.61,0.74l0,2.7c0,0.36 0.26,0.67 0.61,0.74l3.4,0.64c0.18,0.62 0.43,1.21 0.74,1.78l-1.95,2.87c-0.2,0.3 -0.17,0.7 0.09,0.95l1.91,1.91c0.25,0.25 0.66,0.29 0.95,0.09l2.87,-1.95c0.57,0.31 1.16,0.56 1.78,0.74l0.64,3.41c0.07,0.35 0.38,0.61 0.74,0.61l2.7,0c0.36,0 0.67,-0.26 0.74,-0.61l0.64,-3.41c0.62,-0.18 1.21,-0.43 1.78,-0.74l2.87,1.95c0.3,0.2 0.7,0.17 0.95,-0.09l1.91,-1.91c0.26,-0.26 0.29,-0.66 0.09,-0.95zm-2.62,1.36l-2.75,-1.87c-0.24,-0.17 -0.56,-0.17 -0.82,-0.02c-0.7,0.43 -1.45,0.74 -2.24,0.93c-0.29,0.07 -0.51,0.3 -0.56,0.59l-0.62,3.26l-1.46,0l-0.62,-3.26c-0.05,-0.29 -0.28,-0.52 -0.56,-0.59c-0.79,-0.19 -1.54,-0.5 -2.24,-0.93c-0.25,-0.15 -0.57,-0.15 -0.82,0.02l-2.73,1.87l-1.03,-1.03l1.87,-2.75c0.17,-0.24 0.17,-0.56 0.02,-0.81c-0.43,-0.7 -0.74,-1.45 -0.93,-2.24c-0.07,-0.29 -0.3,-0.51 -0.59,-0.56l-3.26,-0.61l0,-1.46l3.26,-0.61c0.29,-0.05 0.52,-0.28 0.59,-0.56c0.19,-0.79 0.5,-1.54 0.93,-2.24c0.16,-0.25 0.15,-0.57 -0.02,-0.82l-1.87,-2.74l1.03,-1.03l2.74,1.87c0.25,0.17 0.57,0.17 0.82,0.02c0.69,-0.43 1.45,-0.74 2.25,-0.93c0.29,-0.07 0.51,-0.3 0.56,-0.59l0.62,-3.26l1.46,0l0.62,3.26c0.05,0.29 0.28,0.52 0.56,0.59c0.8,0.19 1.55,0.5 2.25,0.93c0.25,0.15 0.57,0.15 0.82,-0.02l2.74,-1.87l1.03,1.03l-1.87,2.74c-0.17,0.24 -0.17,0.56 -0.02,0.82c0.43,0.7 0.74,1.45 0.93,2.24c0.07,0.29 0.3,0.51 0.59,0.56l3.26,0.61l0,1.46l-3.26,0.61c-0.29,0.05 -0.52,0.28 -0.59,0.56c-0.19,0.79 -0.5,1.54 -0.93,2.24c-0.16,0.25 -0.15,0.57 0.02,0.81l1.87,2.75l-1.05,1.03z" class="st4"/>
   <path fill="#3498db" id="svg_13" d="m14.370002,13.66c-3.76,0 -6.82,3.06 -6.82,6.82s3.06,6.82 6.82,6.82s6.82,-3.06 6.82,-6.82s-3.06,-6.82 -6.82,-6.82zm5.25,6.07l-1.64,0c-0.3,-1.43 -1.42,-2.55 -2.85,-2.85l0,-1.64c2.32,0.33 4.15,2.16 4.49,4.49zm-5.25,2.93c-1.2,0 -2.18,-0.98 -2.18,-2.18c0,-1.2 0.98,-2.18 2.18,-2.18s2.18,0.98 2.18,2.18c0,1.2 -0.97,2.18 -2.18,2.18zm-0.75,-7.42l0,1.64c-1.43,0.3 -2.55,1.42 -2.85,2.85l-1.64,0c0.33,-2.33 2.16,-4.16 4.49,-4.49zm-4.49,5.99l1.64,0c0.3,1.43 1.42,2.56 2.85,2.85l0,1.64c-2.33,-0.33 -4.16,-2.16 -4.49,-4.49zm5.99,4.49l0,-1.64c1.43,-0.3 2.55,-1.42 2.85,-2.85l1.64,0c-0.33,2.33 -2.16,4.16 -4.49,4.49z" class="st4"/>
   <path fill="#3498db" id="svg_14" d="m48.130002,34.02l-3.26,-0.62c-0.17,-0.58 -0.41,-1.15 -0.7,-1.69l1.87,-2.75c0.2,-0.3 0.17,-0.7 -0.09,-0.95l-1.83,-1.83c-0.26,-0.26 -0.66,-0.29 -0.96,-0.09l-2.74,1.88c-0.54,-0.29 -1.1,-0.52 -1.69,-0.7l-0.62,-3.27c-0.07,-0.35 -0.38,-0.61 -0.74,-0.61l-2.6,0c-0.36,0 -0.67,0.26 -0.74,0.61l-0.62,3.27c-0.59,0.17 -1.15,0.41 -1.69,0.7l-2.74,-1.88c-0.3,-0.2 -0.7,-0.17 -0.96,0.09l-1.83,1.84c-0.25,0.25 -0.29,0.65 -0.09,0.95l1.87,2.75c-0.29,0.54 -0.53,1.1 -0.7,1.69l-3.26,0.61c-0.35,0.07 -0.61,0.38 -0.61,0.74l0,2.6c0,0.36 0.26,0.67 0.61,0.74l3.26,0.62c0.17,0.58 0.41,1.15 0.7,1.69l-1.87,2.75c-0.2,0.3 -0.17,0.7 0.09,0.95l1.84,1.84c0.25,0.25 0.66,0.29 0.95,0.09l2.75,-1.87c0.54,0.29 1.1,0.53 1.69,0.7l0.62,3.27c0.07,0.35 0.38,0.61 0.74,0.61l2.6,0c0.36,0 0.67,-0.26 0.74,-0.61l0.62,-3.27c0.58,-0.17 1.15,-0.41 1.69,-0.7l2.75,1.87c0.3,0.2 0.7,0.17 0.95,-0.09l1.84,-1.84c0.25,-0.25 0.29,-0.65 0.09,-0.95l-1.87,-2.75c0.29,-0.54 0.53,-1.1 0.7,-1.69l3.26,-0.62c0.35,-0.07 0.61,-0.38 0.61,-0.74l0,-2.6c-0.01,-0.36 -0.27,-0.67 -0.63,-0.74zm-0.88,2.72l-3.12,0.59c-0.29,0.05 -0.52,0.28 -0.59,0.56c-0.18,0.76 -0.48,1.48 -0.89,2.15c-0.16,0.25 -0.15,0.57 0.02,0.81l1.79,2.63l-0.96,0.96l-2.63,-1.79c-0.24,-0.17 -0.56,-0.17 -0.81,-0.02c-0.67,0.41 -1.39,0.71 -2.15,0.89c-0.29,0.07 -0.51,0.3 -0.56,0.59l-0.59,3.12l-1.36,0l-0.59,-3.12c-0.05,-0.29 -0.28,-0.52 -0.56,-0.59c-0.76,-0.18 -1.48,-0.48 -2.15,-0.89c-0.25,-0.16 -0.57,-0.15 -0.81,0.02l-2.63,1.79l-0.96,-0.96l1.79,-2.63c0.17,-0.24 0.17,-0.56 0.02,-0.81c-0.41,-0.67 -0.71,-1.39 -0.89,-2.15c-0.07,-0.29 -0.3,-0.51 -0.59,-0.56l-3.12,-0.59l0,-1.36l3.12,-0.59c0.29,-0.05 0.52,-0.28 0.59,-0.56c0.18,-0.76 0.48,-1.48 0.89,-2.15c0.16,-0.25 0.15,-0.57 -0.02,-0.82l-1.79,-2.62l0.96,-0.96l2.62,1.79c0.25,0.17 0.56,0.18 0.82,0.02c0.67,-0.41 1.39,-0.71 2.16,-0.89c0.29,-0.07 0.51,-0.3 0.56,-0.59l0.59,-3.12l1.36,0l0.59,3.12c0.05,0.29 0.28,0.52 0.56,0.59c0.76,0.18 1.49,0.48 2.16,0.89c0.25,0.16 0.57,0.15 0.82,-0.02l2.62,-1.79l0.96,0.96l-1.79,2.62c-0.17,0.24 -0.17,0.56 -0.02,0.82c0.41,0.67 0.71,1.39 0.89,2.15c0.07,0.29 0.3,0.51 0.59,0.56l3.12,0.59l0,1.36l-0.02,0z" class="st4"/>
   <path fill="#3498db" id="svg_15" d="m36.070002,30.09c-3.29,0 -5.97,2.68 -5.97,5.97s2.68,5.97 5.97,5.97s5.97,-2.68 5.97,-5.97s-2.68,-5.97 -5.97,-5.97zm0,10.45c-2.47,0 -4.47,-2.01 -4.47,-4.47s2.01,-4.47 4.47,-4.47s4.47,2.01 4.47,4.47s-2,4.47 -4.47,4.47z" class="st4"/>
   <path fill="#3498db" id="svg_16" d="m29.190002,12.67l2.34,0.44c0.12,0.38 0.27,0.74 0.45,1.09l-1.34,1.98c-0.2,0.3 -0.17,0.7 0.09,0.95l1.38,1.38c0.25,0.25 0.66,0.29 0.95,0.09l1.98,-1.35c0.35,0.18 0.72,0.33 1.09,0.45l0.44,2.35c0.07,0.35 0.38,0.61 0.74,0.61l1.96,0c0.36,0 0.67,-0.26 0.74,-0.61l0.44,-2.35c0.38,-0.12 0.74,-0.27 1.09,-0.45l1.98,1.35c0.3,0.2 0.7,0.17 0.95,-0.09l1.38,-1.38c0.25,-0.25 0.29,-0.65 0.09,-0.95l-1.34,-1.98c0.18,-0.35 0.33,-0.72 0.45,-1.09l2.34,-0.44c0.35,-0.07 0.61,-0.38 0.61,-0.74l0,-1.95c0,-0.36 -0.26,-0.67 -0.61,-0.74l-2.34,-0.44c-0.12,-0.38 -0.27,-0.74 -0.45,-1.09l1.34,-1.97c0.2,-0.3 0.17,-0.7 -0.09,-0.95l-1.38,-1.39c-0.25,-0.26 -0.66,-0.29 -0.96,-0.09l-1.97,1.35c-0.35,-0.18 -0.72,-0.33 -1.1,-0.45l-0.44,-2.35c-0.07,-0.35 -0.38,-0.61 -0.74,-0.61l-1.96,0c-0.36,0 -0.67,0.26 -0.74,0.61l-0.44,2.35c-0.38,0.12 -0.75,0.27 -1.1,0.45l-1.97,-1.35c-0.3,-0.2 -0.7,-0.17 -0.96,0.09l-1.38,1.39c-0.25,0.25 -0.29,0.65 -0.09,0.95l1.34,1.97c-0.18,0.35 -0.33,0.72 -0.45,1.09l-2.34,0.44c-0.35,0.07 -0.61,0.38 -0.61,0.74l0,1.96c0.02,0.36 0.27,0.67 0.63,0.73zm0.89,-2.07l2.19,-0.41c0.29,-0.05 0.52,-0.28 0.59,-0.56c0.13,-0.55 0.35,-1.08 0.65,-1.56c0.16,-0.25 0.15,-0.57 -0.02,-0.82l-1.26,-1.84l0.5,-0.51l1.84,1.26c0.24,0.17 0.56,0.18 0.82,0.02c0.48,-0.3 1.01,-0.52 1.57,-0.65c0.29,-0.07 0.51,-0.3 0.56,-0.59l0.41,-2.2l0.71,0l0.41,2.2c0.07,0.29 0.29,0.52 0.57,0.59c0.55,0.13 1.08,0.35 1.57,0.65c0.25,0.15 0.57,0.15 0.82,-0.02l1.84,-1.26l0.5,0.51l-1.26,1.84c-0.17,0.24 -0.17,0.56 -0.02,0.82c0.3,0.49 0.52,1.01 0.65,1.56c0.07,0.29 0.3,0.51 0.59,0.56l2.19,0.41l0,0.71l-2.19,0.41c-0.29,0.05 -0.52,0.28 -0.59,0.56c-0.13,0.55 -0.35,1.07 -0.65,1.56c-0.16,0.25 -0.15,0.57 0.02,0.81l1.26,1.85l-0.5,0.5l-1.85,-1.26c-0.24,-0.17 -0.56,-0.17 -0.81,-0.02c-0.49,0.3 -1.01,0.52 -1.56,0.65c-0.29,0.07 -0.51,0.3 -0.56,0.59l-0.41,2.2l-0.71,0l-0.41,-2.19c-0.05,-0.29 -0.28,-0.52 -0.56,-0.59c-0.55,-0.13 -1.07,-0.35 -1.56,-0.65c-0.25,-0.15 -0.57,-0.15 -0.82,0.02l-1.87,1.27l-0.5,-0.5l1.26,-1.85c0.17,-0.24 0.17,-0.56 0.02,-0.81c-0.3,-0.48 -0.52,-1.01 -0.65,-1.56c-0.07,-0.29 -0.3,-0.51 -0.59,-0.56l-2.19,-0.41l0,-0.73z" class="st4"/>
   <path fill="#3498db" id="svg_17" d="m38.290002,14.94c2.2,0 3.98,-1.79 3.98,-3.98s-1.79,-3.98 -3.98,-3.98s-3.98,1.79 -3.98,3.98s1.78,3.98 3.98,3.98zm0,-6.46c1.37,0 2.48,1.11 2.48,2.48s-1.11,2.48 -2.48,2.48s-2.48,-1.11 -2.48,-2.48s1.11,-2.48 2.48,-2.48z" class="st4"/>
  </g>
 </g>
</svg>