<svg width="50" height="50" xmlns="http://www.w3.org/2000/svg">

 <g>
  <title>background</title>
  <rect fill="none" id="canvas_background" height="402" width="582" y="-1" x="-1"/>
 </g>
 <g>
  <title>Layer 1</title>
  <g id="svg_17">
   <path fill="#2196f3" id="svg_11" d="m41.18,35.544999c2.31,0 4.18,-1.88 4.18,-4.18s-1.88,-4.18 -4.18,-4.18s-4.19,1.88 -4.19,4.18s1.89,4.18 4.19,4.18zm0,-6.87c1.48,0 2.68,1.2 2.68,2.68s-1.2,2.68 -2.68,2.68s-2.69,-1.2 -2.69,-2.68s1.21,-2.68 2.69,-2.68z" class="st4"/>
   <path fill="#2196f3" id="svg_12" d="m41.19,36.354999c-1.76,0 -3.4,0.59 -4.73,1.67c-2.23,-4.07 -6.55,-6.82 -11.46,-6.82c-4.91,0 -9.22,2.75 -11.46,6.82c-1.33,-1.08 -2.97,-1.67 -4.73,-1.67c-3.99,0 -7.31,3.12 -7.56,7.1c-0.01,0.21 0.06,0.41 0.2,0.56c0.14,0.15 0.34,0.24 0.55,0.24l46,0c0.21,0 0.41,-0.09 0.55,-0.24c0.14,-0.15 0.21,-0.35 0.2,-0.56c-0.25,-3.98 -3.58,-7.1 -7.56,-7.1zm-16.19,-3.64c5.82,0 10.71,4.35 11.47,10.04l-6.61,0l0,-2.45c0,-0.41 -0.34,-0.75 -0.75,-0.75s-0.75,0.34 -0.75,0.75l0,2.45l-9.53,0l0,-2.45c0,-0.41 -0.34,-0.75 -0.75,-0.75s-0.75,0.34 -0.75,0.75l0,2.45l-3.8,0c0.76,-5.69 5.65,-10.04 11.47,-10.04zm-16.18,5.14c1.53,0 2.95,0.56 4.06,1.57c-0.42,1.05 -0.71,2.16 -0.84,3.32l-9.18,0c0.55,-2.79 3.03,-4.89 5.96,-4.89zm29.15,4.9c-0.14,-1.16 -0.42,-2.28 -0.84,-3.32c1.11,-1.02 2.53,-1.57 4.06,-1.57c2.93,0 5.41,2.09 5.97,4.9l-9.19,0l0,-0.01z" class="st4"/>
   <path fill="#2196f3" id="svg_13" d="m8.82,35.544999c2.31,0 4.18,-1.88 4.18,-4.18s-1.87,-4.19 -4.18,-4.19s-4.19,1.88 -4.19,4.18s1.88,4.19 4.19,4.19zm0,-6.87c1.48,0 2.68,1.2 2.68,2.68s-1.2,2.68 -2.68,2.68s-2.69,-1.2 -2.69,-2.68s1.21,-2.68 2.69,-2.68z" class="st4"/>
   <path fill="#2196f3" id="svg_14" d="m18.95,22.384999c1.18,0.98 1.85,2.35 1.85,3.75l0,0.01c0,0.2 0.08,0.39 0.22,0.53s0.33,0.22 0.53,0.22l6.89,0c0.2,0 0.39,-0.08 0.53,-0.22c0.14,-0.14 0.22,-0.33 0.22,-0.53l0,-0.01c0,-1.41 0.66,-2.76 1.8,-3.71c2.18,-1.8 3.43,-4.45 3.43,-7.27l0,-0.1c-0.02,-2.29 -0.9,-4.5 -2.47,-6.23c-0.27,-0.29 -0.76,-0.32 -1.06,-0.05c-0.3,0.28 -0.33,0.75 -0.05,1.06c1.33,1.46 2.07,3.31 2.08,5.23l0,0.09c0,2.37 -1.05,4.6 -2.89,6.12c-1.28,1.06 -2.1,2.52 -2.29,4.12l-1.99,0l0,-8.77l1.01,1.05c0.27,0.29 0.77,0.31 1.06,0.03c0.3,-0.29 0.31,-0.76 0.02,-1.06l-2.3,-2.41c-0.01,-0.01 -0.03,-0.02 -0.04,-0.03c-0.03,-0.03 -0.06,-0.05 -0.1,-0.07c-0.02,-0.01 -0.04,-0.03 -0.07,-0.04c-0.02,-0.01 -0.04,-0.03 -0.06,-0.03c-0.03,-0.01 -0.06,-0.01 -0.09,-0.02c-0.02,-0.01 -0.04,-0.01 -0.07,-0.01c-0.04,-0.01 -0.08,-0.01 -0.12,-0.01c-0.04,0 -0.08,0 -0.12,0.01c-0.03,0 -0.06,0.01 -0.08,0.02c-0.02,0.01 -0.05,0.01 -0.07,0.02c-0.02,0.01 -0.03,0.02 -0.04,0.03c-0.04,0.02 -0.07,0.04 -0.11,0.07c-0.02,0.02 -0.04,0.03 -0.06,0.05c-0.02,0.01 -0.04,0.02 -0.05,0.04l-2.3,2.41c-0.28,0.3 -0.27,0.77 0.03,1.06c0.29,0.28 0.78,0.26 1.06,-0.02l1.01,-1.06l0,8.77l-1.99,0c-0.2,-1.59 -1.03,-3.07 -2.34,-4.16c-1.81,-1.51 -2.85,-3.73 -2.85,-6.09c0.01,-4.36 3.56,-7.92 7.93,-7.93c0.12,0 0.22,0 0.32,0.01c0.87,0.04 1.73,0.22 2.54,0.54c0.38,0.15 0.83,-0.04 0.98,-0.42c0.07,-0.19 0.07,-0.39 -0.01,-0.58c-0.08,-0.18 -0.23,-0.32 -0.41,-0.39c-0.98,-0.39 -1.99,-0.61 -3.03,-0.65c-0.13,-0.01 -0.27,-0.01 -0.39,-0.01c-5.2,0 -9.43,4.23 -9.43,9.43c-0.01,2.77 1.22,5.41 3.37,7.21z" class="st4"/>
   <path fill="#2196f3" id="svg_15" d="m29.47,8.624999c0.12,0.09 0.27,0.14 0.43,0.14c0.24,0 0.47,-0.12 0.61,-0.32c0.12,-0.17 0.16,-0.37 0.13,-0.56c-0.04,-0.2 -0.15,-0.37 -0.31,-0.49c-0.34,-0.23 -0.82,-0.14 -1.05,0.19c-0.11,0.17 -0.16,0.36 -0.12,0.56c0.03,0.2 0.14,0.37 0.31,0.48z" class="st4"/>
   <path fill="#2196f3" id="svg_16" d="m21.55,28.364999c-0.41,0 -0.75,0.33 -0.75,0.75c0,0.41 0.34,0.75 0.75,0.75l6.89,0c0.42,0 0.75,-0.34 0.75,-0.75c0,-0.42 -0.33,-0.75 -0.75,-0.75l-6.89,0z" class="st4"/>
  </g>
 </g>
</svg>