<svg width="50" height="50" xmlns="http://www.w3.org/2000/svg">

 <g>
  <title>background</title>
  <rect fill="none" id="canvas_background" height="402" width="582" y="-1" x="-1"/>
 </g>
 <g>
  <title>Layer 1</title>
  <g id="svg_19">
   <circle fill="#2196f3" id="svg_12" r="0.75" cy="7.414999" cx="37.56" class="st4"/>
   <path fill="#2196f3" id="svg_13" d="m6.88,10.404999l0,22.07c0,0.41 0.34,0.75 0.75,0.75l34.73,0c0.41,0 0.75,-0.34 0.75,-0.75l0,-22.07c0,-0.41 -0.34,-0.75 -0.75,-0.75l-34.73,0c-0.41,0 -0.75,0.34 -0.75,0.75zm1.5,0.75l33.23,0l0,20.57l-33.23,0l0,-20.57z" class="st4"/>
   <path fill="#2196f3" id="svg_14" d="m48,35.724999l-1.88,0l0,-28.31c0,-0.2 -0.08,-0.39 -0.22,-0.53c-0.14,-0.14 -0.34,-0.22 -0.53,-0.22l-5.8,0c-0.41,0 -0.75,0.34 -0.75,0.75s0.34,0.75 0.75,0.75c0.01,0 0.01,0 0.02,0l5.03,0l0,27.56l-14.67,0c-0.41,0 -0.75,0.34 -0.75,0.75l0,1.3l-8.42,0l0,-1.3c0,-0.41 -0.34,-0.75 -0.75,-0.75l-14.65,0l0,-27.56l30.18,0c0.42,0 0.75,-0.34 0.75,-0.75s-0.33,-0.75 -0.75,-0.75l-30.93,0c-0.2,0 -0.39,0.08 -0.53,0.22c-0.14,0.14 -0.22,0.33 -0.22,0.53l0,28.31l-1.88,0c-0.41,0 -0.75,0.34 -0.75,0.75l0,3.11c0,2.07 1.68,3.75 3.75,3.75l40,0c2.07,0 3.75,-1.68 3.75,-3.75l0,-3.11c0,-0.42 -0.34,-0.75 -0.75,-0.75zm-0.75,3.85c0,1.24 -1.01,2.25 -2.25,2.25l-40,0c-1.24,0 -2.25,-1.01 -2.25,-2.25l0,-2.36l16.54,0l0,1.3c0,0.41 0.34,0.75 0.75,0.75l9.92,0c0.41,0 0.75,-0.34 0.75,-0.75l0,-1.3l16.54,0l0,2.36z" class="st4"/>
  </g>
 </g>
</svg>